0
SECTION
2
HEADER
9
$ACADVER
1
AC1008
9
$UCSORG
10
0.0
20
0.0
30
0.0
9
$UCSXDIR
10
1.0
20
0.0
30
0.0
9
$TILEMODE
70
1
9
$UCSYDIR
10
0.0
20
1.0
30
0.0
9
$EXTMIN
10
-576.000000
20
-576.000000
30
-64.000000
9
$EXTMAX
10
576.000000
20
576.000000
30
320.000000
0
ENDSEC
0
SECTION
2
TABLES
0
TABLE
2
LTYPE
70
1
0
LTYPE
2
CONTINUOUS
70
64
3
Solid line
72
65
73
0
40
0.0
0
ENDTAB
0
TABLE
2
LAYER
70
1
0
LAYER
2
0
70
0
62
7
6
CONTINUOUS
0
ENDTAB
0
TABLE
2
STYLE
70
1
0
STYLE
2
STANDARD
70
0
40
0.0
41
1.0
50
0.0
71
0
42
0.2
3
txt
4

0
ENDTAB
0
TABLE
2
UCS
70
0
0
ENDTAB
0
ENDSEC
0
SECTION
2
ENTITIES
0
POLYLINE
8
OBJECT000
66
1
70
64
71
8
72
12
62
50
0
VERTEX
8
OBJECT000
10
-576.000000
20
-576.000000
30
0.000000
70
192
0
VERTEX
8
OBJECT000
10
-576.000000
20
576.000000
30
0.000000
70
192
0
VERTEX
8
OBJECT000
10
576.000000
20
576.000000
30
0.000000
70
192
0
VERTEX
8
OBJECT000
10
576.000000
20
-576.000000
30
0.000000
70
192
0
VERTEX
8
OBJECT000
10
-576.000000
20
576.000000
30
-64.000000
70
192
0
VERTEX
8
OBJECT000
10
-576.000000
20
-576.000000
30
-64.000000
70
192
0
VERTEX
8
OBJECT000
10
576.000000
20
-576.000000
30
-64.000000
70
192
0
VERTEX
8
OBJECT000
10
576.000000
20
576.000000
30
-64.000000
70
192
0
VERTEX
8
OBJECT000
10
0
20
0
30
0
70
128
71
2
72
3
73
-4
0
VERTEX
8
OBJECT000
10
0
20
0
30
0
70
128
71
-2
72
4
73
1
0
VERTEX
8
OBJECT000
10
0
20
0
30
0
70
128
71
6
72
7
73
-8
0
VERTEX
8
OBJECT000
10
0
20
0
30
0
70
128
71
-6
72
8
73
5
0
VERTEX
8
OBJECT000
10
0
20
0
30
0
70
128
71
5
72
2
73
-1
0
VERTEX
8
OBJECT000
10
0
20
0
30
0
70
128
71
-5
72
1
73
6
0
VERTEX
8
OBJECT000
10
0
20
0
30
0
70
128
71
7
72
4
73
-3
0
VERTEX
8
OBJECT000
10
0
20
0
30
0
70
128
71
-7
72
3
73
8
0
VERTEX
8
OBJECT000
10
0
20
0
30
0
70
128
71
8
72
3
73
-2
0
VERTEX
8
OBJECT000
10
0
20
0
30
0
70
128
71
-8
72
2
73
5
0
VERTEX
8
OBJECT000
10
0
20
0
30
0
70
128
71
6
72
1
73
-4
0
VERTEX
8
OBJECT000
10
0
20
0
30
0
70
128
71
-6
72
4
73
7
0
SEQEND
8
OBJECT000
0
POLYLINE
8
OBJECT001
66
1
70
64
71
8
72
12
62
50
0
VERTEX
8
OBJECT001
10
-576.000000
20
512.000000
30
256.000000
70
192
0
VERTEX
8
OBJECT001
10
-576.000000
20
576.000000
30
256.000000
70
192
0
VERTEX
8
OBJECT001
10
576.000000
20
576.000000
30
256.000000
70
192
0
VERTEX
8
OBJECT001
10
576.000000
20
512.000000
30
256.000000
70
192
0
VERTEX
8
OBJECT001
10
-576.000000
20
576.000000
30
0.000000
70
192
0
VERTEX
8
OBJECT001
10
-576.000000
20
512.000000
30
0.000000
70
192
0
VERTEX
8
OBJECT001
10
576.000000
20
512.000000
30
0.000000
70
192
0
VERTEX
8
OBJECT001
10
576.000000
20
576.000000
30
0.000000
70
192
0
VERTEX
8
OBJECT001
10
0
20
0
30
0
70
128
71
2
72
3
73
-4
0
VERTEX
8
OBJECT001
10
0
20
0
30
0
70
128
71
-2
72
4
73
1
0
VERTEX
8
OBJECT001
10
0
20
0
30
0
70
128
71
6
72
7
73
-8
0
VERTEX
8
OBJECT001
10
0
20
0
30
0
70
128
71
-6
72
8
73
5
0
VERTEX
8
OBJECT001
10
0
20
0
30
0
70
128
71
5
72
2
73
-1
0
VERTEX
8
OBJECT001
10
0
20
0
30
0
70
128
71
-5
72
1
73
6
0
VERTEX
8
OBJECT001
10
0
20
0
30
0
70
128
71
7
72
4
73
-3
0
VERTEX
8
OBJECT001
10
0
20
0
30
0
70
128
71
-7
72
3
73
8
0
VERTEX
8
OBJECT001
10
0
20
0
30
0
70
128
71
8
72
3
73
-2
0
VERTEX
8
OBJECT001
10
0
20
0
30
0
70
128
71
-8
72
2
73
5
0
VERTEX
8
OBJECT001
10
0
20
0
30
0
70
128
71
6
72
1
73
-4
0
VERTEX
8
OBJECT001
10
0
20
0
30
0
70
128
71
-6
72
4
73
7
0
SEQEND
8
OBJECT001
0
POLYLINE
8
OBJECT002
66
1
70
64
71
8
72
12
62
50
0
VERTEX
8
OBJECT002
10
-576.000000
20
-512.000000
30
256.000000
70
192
0
VERTEX
8
OBJECT002
10
-576.000000
20
512.000000
30
256.000000
70
192
0
VERTEX
8
OBJECT002
10
-512.000000
20
512.000000
30
256.000000
70
192
0
VERTEX
8
OBJECT002
10
-512.000000
20
-512.000000
30
256.000000
70
192
0
VERTEX
8
OBJECT002
10
-576.000000
20
512.000000
30
0.000000
70
192
0
VERTEX
8
OBJECT002
10
-576.000000
20
-512.000000
30
0.000000
70
192
0
VERTEX
8
OBJECT002
10
-512.000000
20
-512.000000
30
0.000000
70
192
0
VERTEX
8
OBJECT002
10
-512.000000
20
512.000000
30
0.000000
70
192
0
VERTEX
8
OBJECT002
10
0
20
0
30
0
70
128
71
2
72
3
73
-4
0
VERTEX
8
OBJECT002
10
0
20
0
30
0
70
128
71
-2
72
4
73
1
0
VERTEX
8
OBJECT002
10
0
20
0
30
0
70
128
71
6
72
7
73
-8
0
VERTEX
8
OBJECT002
10
0
20
0
30
0
70
128
71
-6
72
8
73
5
0
VERTEX
8
OBJECT002
10
0
20
0
30
0
70
128
71
5
72
2
73
-1
0
VERTEX
8
OBJECT002
10
0
20
0
30
0
70
128
71
-5
72
1
73
6
0
VERTEX
8
OBJECT002
10
0
20
0
30
0
70
128
71
7
72
4
73
-3
0
VERTEX
8
OBJECT002
10
0
20
0
30
0
70
128
71
-7
72
3
73
8
0
VERTEX
8
OBJECT002
10
0
20
0
30
0
70
128
71
8
72
3
73
-2
0
VERTEX
8
OBJECT002
10
0
20
0
30
0
70
128
71
-8
72
2
73
5
0
VERTEX
8
OBJECT002
10
0
20
0
30
0
70
128
71
6
72
1
73
-4
0
VERTEX
8
OBJECT002
10
0
20
0
30
0
70
128
71
-6
72
4
73
7
0
SEQEND
8
OBJECT002
0
POLYLINE
8
OBJECT003
66
1
70
64
71
8
72
12
62
50
0
VERTEX
8
OBJECT003
10
-576.000000
20
-576.000000
30
256.000000
70
192
0
VERTEX
8
OBJECT003
10
-576.000000
20
-512.000000
30
256.000000
70
192
0
VERTEX
8
OBJECT003
10
576.000000
20
-512.000000
30
256.000000
70
192
0
VERTEX
8
OBJECT003
10
576.000000
20
-576.000000
30
256.000000
70
192
0
VERTEX
8
OBJECT003
10
-576.000000
20
-512.000000
30
0.000000
70
192
0
VERTEX
8
OBJECT003
10
-576.000000
20
-576.000000
30
0.000000
70
192
0
VERTEX
8
OBJECT003
10
576.000000
20
-576.000000
30
0.000000
70
192
0
VERTEX
8
OBJECT003
10
576.000000
20
-512.000000
30
0.000000
70
192
0
VERTEX
8
OBJECT003
10
0
20
0
30
0
70
128
71
2
72
3
73
-4
0
VERTEX
8
OBJECT003
10
0
20
0
30
0
70
128
71
-2
72
4
73
1
0
VERTEX
8
OBJECT003
10
0
20
0
30
0
70
128
71
6
72
7
73
-8
0
VERTEX
8
OBJECT003
10
0
20
0
30
0
70
128
71
-6
72
8
73
5
0
VERTEX
8
OBJECT003
10
0
20
0
30
0
70
128
71
5
72
2
73
-1
0
VERTEX
8
OBJECT003
10
0
20
0
30
0
70
128
71
-5
72
1
73
6
0
VERTEX
8
OBJECT003
10
0
20
0
30
0
70
128
71
7
72
4
73
-3
0
VERTEX
8
OBJECT003
10
0
20
0
30
0
70
128
71
-7
72
3
73
8
0
VERTEX
8
OBJECT003
10
0
20
0
30
0
70
128
71
8
72
3
73
-2
0
VERTEX
8
OBJECT003
10
0
20
0
30
0
70
128
71
-8
72
2
73
5
0
VERTEX
8
OBJECT003
10
0
20
0
30
0
70
128
71
6
72
1
73
-4
0
VERTEX
8
OBJECT003
10
0
20
0
30
0
70
128
71
-6
72
4
73
7
0
SEQEND
8
OBJECT003
0
POLYLINE
8
OBJECT004
66
1
70
64
71
8
72
12
62
50
0
VERTEX
8
OBJECT004
10
512.000000
20
-512.000000
30
256.000000
70
192
0
VERTEX
8
OBJECT004
10
512.000000
20
512.000000
30
256.000000
70
192
0
VERTEX
8
OBJECT004
10
576.000000
20
512.000000
30
256.000000
70
192
0
VERTEX
8
OBJECT004
10
576.000000
20
-512.000000
30
256.000000
70
192
0
VERTEX
8
OBJECT004
10
512.000000
20
512.000000
30
0.000000
70
192
0
VERTEX
8
OBJECT004
10
512.000000
20
-512.000000
30
0.000000
70
192
0
VERTEX
8
OBJECT004
10
576.000000
20
-512.000000
30
0.000000
70
192
0
VERTEX
8
OBJECT004
10
576.000000
20
512.000000
30
0.000000
70
192
0
VERTEX
8
OBJECT004
10
0
20
0
30
0
70
128
71
2
72
3
73
-4
0
VERTEX
8
OBJECT004
10
0
20
0
30
0
70
128
71
-2
72
4
73
1
0
VERTEX
8
OBJECT004
10
0
20
0
30
0
70
128
71
6
72
7
73
-8
0
VERTEX
8
OBJECT004
10
0
20
0
30
0
70
128
71
-6
72
8
73
5
0
VERTEX
8
OBJECT004
10
0
20
0
30
0
70
128
71
5
72
2
73
-1
0
VERTEX
8
OBJECT004
10
0
20
0
30
0
70
128
71
-5
72
1
73
6
0
VERTEX
8
OBJECT004
10
0
20
0
30
0
70
128
71
7
72
4
73
-3
0
VERTEX
8
OBJECT004
10
0
20
0
30
0
70
128
71
-7
72
3
73
8
0
VERTEX
8
OBJECT004
10
0
20
0
30
0
70
128
71
8
72
3
73
-2
0
VERTEX
8
OBJECT004
10
0
20
0
30
0
70
128
71
-8
72
2
73
5
0
VERTEX
8
OBJECT004
10
0
20
0
30
0
70
128
71
6
72
1
73
-4
0
VERTEX
8
OBJECT004
10
0
20
0
30
0
70
128
71
-6
72
4
73
7
0
SEQEND
8
OBJECT004
0
POLYLINE
8
OBJECT005
66
1
70
64
71
8
72
12
62
50
0
VERTEX
8
OBJECT005
10
-576.000000
20
-576.000000
30
320.000000
70
192
0
VERTEX
8
OBJECT005
10
-576.000000
20
576.000000
30
320.000000
70
192
0
VERTEX
8
OBJECT005
10
576.000000
20
576.000000
30
320.000000
70
192
0
VERTEX
8
OBJECT005
10
576.000000
20
-576.000000
30
320.000000
70
192
0
VERTEX
8
OBJECT005
10
-576.000000
20
576.000000
30
256.000000
70
192
0
VERTEX
8
OBJECT005
10
-576.000000
20
-576.000000
30
256.000000
70
192
0
VERTEX
8
OBJECT005
10
576.000000
20
-576.000000
30
256.000000
70
192
0
VERTEX
8
OBJECT005
10
576.000000
20
576.000000
30
256.000000
70
192
0
VERTEX
8
OBJECT005
10
0
20
0
30
0
70
128
71
2
72
3
73
-4
0
VERTEX
8
OBJECT005
10
0
20
0
30
0
70
128
71
-2
72
4
73
1
0
VERTEX
8
OBJECT005
10
0
20
0
30
0
70
128
71
6
72
7
73
-8
0
VERTEX
8
OBJECT005
10
0
20
0
30
0
70
128
71
-6
72
8
73
5
0
VERTEX
8
OBJECT005
10
0
20
0
30
0
70
128
71
5
72
2
73
-1
0
VERTEX
8
OBJECT005
10
0
20
0
30
0
70
128
71
-5
72
1
73
6
0
VERTEX
8
OBJECT005
10
0
20
0
30
0
70
128
71
7
72
4
73
-3
0
VERTEX
8
OBJECT005
10
0
20
0
30
0
70
128
71
-7
72
3
73
8
0
VERTEX
8
OBJECT005
10
0
20
0
30
0
70
128
71
8
72
3
73
-2
0
VERTEX
8
OBJECT005
10
0
20
0
30
0
70
128
71
-8
72
2
73
5
0
VERTEX
8
OBJECT005
10
0
20
0
30
0
70
128
71
6
72
1
73
-4
0
VERTEX
8
OBJECT005
10
0
20
0
30
0
70
128
71
-6
72
4
73
7
0
SEQEND
8
OBJECT005
0
POLYLINE
8
OBJECT006
66
1
70
64
71
8
72
12
62
50
0
VERTEX
8
OBJECT006
10
-512.000000
20
-512.000000
30
8.000000
70
192
0
VERTEX
8
OBJECT006
10
-512.000000
20
512.000000
30
8.000000
70
192
0
VERTEX
8
OBJECT006
10
512.000000
20
512.000000
30
8.000000
70
192
0
VERTEX
8
OBJECT006
10
512.000000
20
-512.000000
30
8.000000
70
192
0
VERTEX
8
OBJECT006
10
-512.000000
20
512.000000
30
0.000000
70
192
0
VERTEX
8
OBJECT006
10
-512.000000
20
-512.000000
30
0.000000
70
192
0
VERTEX
8
OBJECT006
10
512.000000
20
-512.000000
30
0.000000
70
192
0
VERTEX
8
OBJECT006
10
512.000000
20
512.000000
30
0.000000
70
192
0
VERTEX
8
OBJECT006
10
0
20
0
30
0
70
128
71
2
72
3
73
-4
0
VERTEX
8
OBJECT006
10
0
20
0
30
0
70
128
71
-2
72
4
73
1
0
VERTEX
8
OBJECT006
10
0
20
0
30
0
70
128
71
6
72
7
73
-8
0
VERTEX
8
OBJECT006
10
0
20
0
30
0
70
128
71
-6
72
8
73
5
0
VERTEX
8
OBJECT006
10
0
20
0
30
0
70
128
71
5
72
2
73
-1
0
VERTEX
8
OBJECT006
10
0
20
0
30
0
70
128
71
-5
72
1
73
6
0
VERTEX
8
OBJECT006
10
0
20
0
30
0
70
128
71
7
72
4
73
-3
0
VERTEX
8
OBJECT006
10
0
20
0
30
0
70
128
71
-7
72
3
73
8
0
VERTEX
8
OBJECT006
10
0
20
0
30
0
70
128
71
8
72
3
73
-2
0
VERTEX
8
OBJECT006
10
0
20
0
30
0
70
128
71
-8
72
2
73
5
0
VERTEX
8
OBJECT006
10
0
20
0
30
0
70
128
71
6
72
1
73
-4
0
VERTEX
8
OBJECT006
10
0
20
0
30
0
70
128
71
-6
72
4
73
7
0
SEQEND
8
OBJECT006
0
POLYLINE
8
OBJECT007
66
1
70
64
71
8
72
12
62
50
0
VERTEX
8
OBJECT007
10
-388.062103
20
504.000000
30
55.840199
70
192
0
VERTEX
8
OBJECT007
10
-388.062103
20
512.000000
30
55.840199
70
192
0
VERTEX
8
OBJECT007
10
-380.063080
20
512.000000
30
55.840199
70
192
0
VERTEX
8
OBJECT007
10
-380.063080
20
504.000000
30
55.840199
70
192
0
VERTEX
8
OBJECT007
10
-387.062012
20
511.000000
30
51.840199
70
192
0
VERTEX
8
OBJECT007
10
-387.062012
20
505.000000
30
51.840199
70
192
0
VERTEX
8
OBJECT007
10
-381.061584
20
505.000000
30
51.840199
70
192
0
VERTEX
8
OBJECT007
10
-381.061584
20
511.000000
30
51.840199
70
192
0
VERTEX
8
OBJECT007
10
0
20
0
30
0
70
128
71
2
72
3
73
-4
0
VERTEX
8
OBJECT007
10
0
20
0
30
0
70
128
71
-2
72
4
73
1
0
VERTEX
8
OBJECT007
10
0
20
0
30
0
70
128
71
6
72
7
73
-8
0
VERTEX
8
OBJECT007
10
0
20
0
30
0
70
128
71
-6
72
8
73
5
0
VERTEX
8
OBJECT007
10
0
20
0
30
0
70
128
71
7
72
4
73
-3
0
VERTEX
8
OBJECT007
10
0
20
0
30
0
70
128
71
-7
72
3
73
8
0
VERTEX
8
OBJECT007
10
0
20
0
30
0
70
128
71
5
72
2
73
-1
0
VERTEX
8
OBJECT007
10
0
20
0
30
0
70
128
71
-5
72
1
73
6
0
VERTEX
8
OBJECT007
10
0
20
0
30
0
70
128
71
6
72
1
73
-4
0
VERTEX
8
OBJECT007
10
0
20
0
30
0
70
128
71
-6
72
4
73
7
0
VERTEX
8
OBJECT007
10
0
20
0
30
0
70
128
71
8
72
3
73
-2
0
VERTEX
8
OBJECT007
10
0
20
0
30
0
70
128
71
-8
72
2
73
5
0
SEQEND
8
OBJECT007
0
POLYLINE
8
OBJECT008
66
1
70
64
71
8
72
12
62
50
0
VERTEX
8
OBJECT008
10
-387.062012
20
505.000000
30
51.840199
70
192
0
VERTEX
8
OBJECT008
10
-387.062012
20
511.000000
30
51.840199
70
192
0
VERTEX
8
OBJECT008
10
-381.062500
20
511.000000
30
51.840199
70
192
0
VERTEX
8
OBJECT008
10
-381.062500
20
505.000000
30
51.840199
70
192
0
VERTEX
8
OBJECT008
10
-387.062012
20
511.000000
30
43.840199
70
192
0
VERTEX
8
OBJECT008
10
-387.062012
20
505.000000
30
43.840199
70
192
0
VERTEX
8
OBJECT008
10
-381.062500
20
505.000000
30
43.840199
70
192
0
VERTEX
8
OBJECT008
10
-381.062500
20
511.000000
30
43.840199
70
192
0
VERTEX
8
OBJECT008
10
0
20
0
30
0
70
128
71
2
72
3
73
-4
0
VERTEX
8
OBJECT008
10
0
20
0
30
0
70
128
71
-2
72
4
73
1
0
VERTEX
8
OBJECT008
10
0
20
0
30
0
70
128
71
6
72
7
73
-8
0
VERTEX
8
OBJECT008
10
0
20
0
30
0
70
128
71
-6
72
8
73
5
0
VERTEX
8
OBJECT008
10
0
20
0
30
0
70
128
71
7
72
4
73
-3
0
VERTEX
8
OBJECT008
10
0
20
0
30
0
70
128
71
-7
72
3
73
8
0
VERTEX
8
OBJECT008
10
0
20
0
30
0
70
128
71
5
72
2
73
-1
0
VERTEX
8
OBJECT008
10
0
20
0
30
0
70
128
71
-5
72
1
73
6
0
VERTEX
8
OBJECT008
10
0
20
0
30
0
70
128
71
6
72
1
73
-4
0
VERTEX
8
OBJECT008
10
0
20
0
30
0
70
128
71
-6
72
4
73
7
0
VERTEX
8
OBJECT008
10
0
20
0
30
0
70
128
71
8
72
3
73
-2
0
VERTEX
8
OBJECT008
10
0
20
0
30
0
70
128
71
-8
72
2
73
5
0
SEQEND
8
OBJECT008
0
POLYLINE
8
OBJECT009
66
1
70
64
71
8
72
12
62
50
0
VERTEX
8
OBJECT009
10
-387.063110
20
505.000000
30
43.840199
70
192
0
VERTEX
8
OBJECT009
10
-387.063110
20
511.000000
30
43.840199
70
192
0
VERTEX
8
OBJECT009
10
-381.061584
20
511.000000
30
43.840199
70
192
0
VERTEX
8
OBJECT009
10
-381.061584
20
505.000000
30
43.840199
70
192
0
VERTEX
8
OBJECT009
10
-386.063995
20
510.000000
30
39.840199
70
192
0
VERTEX
8
OBJECT009
10
-386.063995
20
506.000000
30
39.840199
70
192
0
VERTEX
8
OBJECT009
10
-382.062134
20
506.000000
30
39.840199
70
192
0
VERTEX
8
OBJECT009
10
-382.062134
20
510.000000
30
39.840199
70
192
0
VERTEX
8
OBJECT009
10
0
20
0
30
0
70
128
71
2
72
3
73
-4
0
VERTEX
8
OBJECT009
10
0
20
0
30
0
70
128
71
-2
72
4
73
1
0
VERTEX
8
OBJECT009
10
0
20
0
30
0
70
128
71
6
72
7
73
-8
0
VERTEX
8
OBJECT009
10
0
20
0
30
0
70
128
71
-6
72
8
73
5
0
VERTEX
8
OBJECT009
10
0
20
0
30
0
70
128
71
7
72
4
73
-3
0
VERTEX
8
OBJECT009
10
0
20
0
30
0
70
128
71
-7
72
3
73
8
0
VERTEX
8
OBJECT009
10
0
20
0
30
0
70
128
71
5
72
2
73
-1
0
VERTEX
8
OBJECT009
10
0
20
0
30
0
70
128
71
-5
72
1
73
6
0
VERTEX
8
OBJECT009
10
0
20
0
30
0
70
128
71
6
72
1
73
-4
0
VERTEX
8
OBJECT009
10
0
20
0
30
0
70
128
71
-6
72
4
73
7
0
VERTEX
8
OBJECT009
10
0
20
0
30
0
70
128
71
8
72
3
73
-2
0
VERTEX
8
OBJECT009
10
0
20
0
30
0
70
128
71
-8
72
2
73
5
0
SEQEND
8
OBJECT009
0
POLYLINE
8
OBJECT010
66
1
70
64
71
8
72
12
62
50
0
VERTEX
8
OBJECT010
10
-386.062073
20
506.000000
30
39.840199
70
192
0
VERTEX
8
OBJECT010
10
-386.062073
20
510.000000
30
39.840199
70
192
0
VERTEX
8
OBJECT010
10
-382.062317
20
510.000000
30
39.840199
70
192
0
VERTEX
8
OBJECT010
10
-382.062317
20
506.000000
30
39.840199
70
192
0
VERTEX
8
OBJECT010
10
-385.062012
20
509.000000
30
33.840199
70
192
0
VERTEX
8
OBJECT010
10
-385.062012
20
507.000000
30
33.840199
70
192
0
VERTEX
8
OBJECT010
10
-383.062286
20
507.000000
30
33.840199
70
192
0
VERTEX
8
OBJECT010
10
-383.062286
20
509.000000
30
33.840199
70
192
0
VERTEX
8
OBJECT010
10
0
20
0
30
0
70
128
71
2
72
3
73
-4
0
VERTEX
8
OBJECT010
10
0
20
0
30
0
70
128
71
-2
72
4
73
1
0
VERTEX
8
OBJECT010
10
0
20
0
30
0
70
128
71
6
72
7
73
-8
0
VERTEX
8
OBJECT010
10
0
20
0
30
0
70
128
71
-6
72
8
73
5
0
VERTEX
8
OBJECT010
10
0
20
0
30
0
70
128
71
7
72
4
73
-3
0
VERTEX
8
OBJECT010
10
0
20
0
30
0
70
128
71
-7
72
3
73
8
0
VERTEX
8
OBJECT010
10
0
20
0
30
0
70
128
71
5
72
2
73
-1
0
VERTEX
8
OBJECT010
10
0
20
0
30
0
70
128
71
-5
72
1
73
6
0
VERTEX
8
OBJECT010
10
0
20
0
30
0
70
128
71
6
72
1
73
-4
0
VERTEX
8
OBJECT010
10
0
20
0
30
0
70
128
71
-6
72
4
73
7
0
VERTEX
8
OBJECT010
10
0
20
0
30
0
70
128
71
8
72
3
73
-2
0
VERTEX
8
OBJECT010
10
0
20
0
30
0
70
128
71
-8
72
2
73
5
0
SEQEND
8
OBJECT010
0
POLYLINE
8
OBJECT011
66
1
70
64
71
5
72
6
62
50
0
VERTEX
8
OBJECT011
10
-385.063110
20
507.000000
30
33.840191
70
192
0
VERTEX
8
OBJECT011
10
-385.063110
20
509.000000
30
33.840191
70
192
0
VERTEX
8
OBJECT011
10
-383.061981
20
509.000000
30
33.840191
70
192
0
VERTEX
8
OBJECT011
10
-383.061981
20
507.000000
30
33.840191
70
192
0
VERTEX
8
OBJECT011
10
-384.062714
20
508.000000
30
31.841024
70
192
0
VERTEX
8
OBJECT011
10
0
20
0
30
0
70
128
71
2
72
3
73
-4
0
VERTEX
8
OBJECT011
10
0
20
0
30
0
70
128
71
-2
72
4
73
1
0
VERTEX
8
OBJECT011
10
0
20
0
30
0
70
128
71
4
72
3
73
5
0
VERTEX
8
OBJECT011
10
0
20
0
30
0
70
128
71
2
72
1
73
5
0
VERTEX
8
OBJECT011
10
0
20
0
30
0
70
128
71
4
72
5
73
1
0
VERTEX
8
OBJECT011
10
0
20
0
30
0
70
128
71
3
72
2
73
5
0
SEQEND
8
OBJECT011
0
POLYLINE
8
OBJECT012
66
1
70
64
71
8
72
12
62
50
0
VERTEX
8
OBJECT012
10
-324.063110
20
504.000000
30
87.840202
70
192
0
VERTEX
8
OBJECT012
10
-324.063110
20
512.000000
30
87.840202
70
192
0
VERTEX
8
OBJECT012
10
-316.061676
20
512.000000
30
87.840202
70
192
0
VERTEX
8
OBJECT012
10
-316.061676
20
504.000000
30
87.840202
70
192
0
VERTEX
8
OBJECT012
10
-323.062988
20
511.000000
30
83.840202
70
192
0
VERTEX
8
OBJECT012
10
-323.062988
20
505.000000
30
83.840202
70
192
0
VERTEX
8
OBJECT012
10
-317.064301
20
505.000000
30
83.840202
70
192
0
VERTEX
8
OBJECT012
10
-317.064301
20
511.000000
30
83.840202
70
192
0
VERTEX
8
OBJECT012
10
0
20
0
30
0
70
128
71
2
72
3
73
-4
0
VERTEX
8
OBJECT012
10
0
20
0
30
0
70
128
71
-2
72
4
73
1
0
VERTEX
8
OBJECT012
10
0
20
0
30
0
70
128
71
6
72
7
73
-8
0
VERTEX
8
OBJECT012
10
0
20
0
30
0
70
128
71
-6
72
8
73
5
0
VERTEX
8
OBJECT012
10
0
20
0
30
0
70
128
71
7
72
4
73
-3
0
VERTEX
8
OBJECT012
10
0
20
0
30
0
70
128
71
-7
72
3
73
8
0
VERTEX
8
OBJECT012
10
0
20
0
30
0
70
128
71
5
72
2
73
-1
0
VERTEX
8
OBJECT012
10
0
20
0
30
0
70
128
71
-5
72
1
73
6
0
VERTEX
8
OBJECT012
10
0
20
0
30
0
70
128
71
6
72
1
73
-4
0
VERTEX
8
OBJECT012
10
0
20
0
30
0
70
128
71
-6
72
4
73
7
0
VERTEX
8
OBJECT012
10
0
20
0
30
0
70
128
71
8
72
3
73
-2
0
VERTEX
8
OBJECT012
10
0
20
0
30
0
70
128
71
-8
72
2
73
5
0
SEQEND
8
OBJECT012
0
POLYLINE
8
OBJECT013
66
1
70
64
71
8
72
12
62
50
0
VERTEX
8
OBJECT013
10
-323.062012
20
505.000000
30
83.840202
70
192
0
VERTEX
8
OBJECT013
10
-323.062012
20
511.000000
30
83.840202
70
192
0
VERTEX
8
OBJECT013
10
-317.062500
20
511.000000
30
83.840202
70
192
0
VERTEX
8
OBJECT013
10
-317.062500
20
505.000000
30
83.840202
70
192
0
VERTEX
8
OBJECT013
10
-323.062012
20
511.000000
30
75.840202
70
192
0
VERTEX
8
OBJECT013
10
-323.062012
20
505.000000
30
75.840202
70
192
0
VERTEX
8
OBJECT013
10
-317.062500
20
505.000000
30
75.840202
70
192
0
VERTEX
8
OBJECT013
10
-317.062500
20
511.000000
30
75.840202
70
192
0
VERTEX
8
OBJECT013
10
0
20
0
30
0
70
128
71
2
72
3
73
-4
0
VERTEX
8
OBJECT013
10
0
20
0
30
0
70
128
71
-2
72
4
73
1
0
VERTEX
8
OBJECT013
10
0
20
0
30
0
70
128
71
6
72
7
73
-8
0
VERTEX
8
OBJECT013
10
0
20
0
30
0
70
128
71
-6
72
8
73
5
0
VERTEX
8
OBJECT013
10
0
20
0
30
0
70
128
71
7
72
4
73
-3
0
VERTEX
8
OBJECT013
10
0
20
0
30
0
70
128
71
-7
72
3
73
8
0
VERTEX
8
OBJECT013
10
0
20
0
30
0
70
128
71
5
72
2
73
-1
0
VERTEX
8
OBJECT013
10
0
20
0
30
0
70
128
71
-5
72
1
73
6
0
VERTEX
8
OBJECT013
10
0
20
0
30
0
70
128
71
6
72
1
73
-4
0
VERTEX
8
OBJECT013
10
0
20
0
30
0
70
128
71
-6
72
4
73
7
0
VERTEX
8
OBJECT013
10
0
20
0
30
0
70
128
71
8
72
3
73
-2
0
VERTEX
8
OBJECT013
10
0
20
0
30
0
70
128
71
-8
72
2
73
5
0
SEQEND
8
OBJECT013
0
POLYLINE
8
OBJECT014
66
1
70
64
71
8
72
12
62
50
0
VERTEX
8
OBJECT014
10
-323.063080
20
505.000000
30
75.840202
70
192
0
VERTEX
8
OBJECT014
10
-323.063080
20
511.000000
30
75.840202
70
192
0
VERTEX
8
OBJECT014
10
-317.061615
20
511.000000
30
75.840202
70
192
0
VERTEX
8
OBJECT014
10
-317.061615
20
505.000000
30
75.840202
70
192
0
VERTEX
8
OBJECT014
10
-322.062988
20
510.000000
30
71.840202
70
192
0
VERTEX
8
OBJECT014
10
-322.062988
20
506.000000
30
71.840202
70
192
0
VERTEX
8
OBJECT014
10
-318.060120
20
506.000000
30
71.840202
70
192
0
VERTEX
8
OBJECT014
10
-318.060120
20
510.000000
30
71.840202
70
192
0
VERTEX
8
OBJECT014
10
0
20
0
30
0
70
128
71
2
72
3
73
-4
0
VERTEX
8
OBJECT014
10
0
20
0
30
0
70
128
71
-2
72
4
73
1
0
VERTEX
8
OBJECT014
10
0
20
0
30
0
70
128
71
6
72
7
73
-8
0
VERTEX
8
OBJECT014
10
0
20
0
30
0
70
128
71
-6
72
8
73
5
0
VERTEX
8
OBJECT014
10
0
20
0
30
0
70
128
71
7
72
4
73
-3
0
VERTEX
8
OBJECT014
10
0
20
0
30
0
70
128
71
-7
72
3
73
8
0
VERTEX
8
OBJECT014
10
0
20
0
30
0
70
128
71
5
72
2
73
-1
0
VERTEX
8
OBJECT014
10
0
20
0
30
0
70
128
71
-5
72
1
73
6
0
VERTEX
8
OBJECT014
10
0
20
0
30
0
70
128
71
6
72
1
73
-4
0
VERTEX
8
OBJECT014
10
0
20
0
30
0
70
128
71
-6
72
4
73
7
0
VERTEX
8
OBJECT014
10
0
20
0
30
0
70
128
71
8
72
3
73
-2
0
VERTEX
8
OBJECT014
10
0
20
0
30
0
70
128
71
-8
72
2
73
5
0
SEQEND
8
OBJECT014
0
POLYLINE
8
OBJECT015
66
1
70
64
71
8
72
12
62
50
0
VERTEX
8
OBJECT015
10
-322.062103
20
506.000000
30
71.840202
70
192
0
VERTEX
8
OBJECT015
10
-322.062103
20
510.000000
30
71.840202
70
192
0
VERTEX
8
OBJECT015
10
-318.062531
20
510.000000
30
71.840202
70
192
0
VERTEX
8
OBJECT015
10
-318.062531
20
506.000000
30
71.840202
70
192
0
VERTEX
8
OBJECT015
10
-321.062012
20
509.000000
30
65.840202
70
192
0
VERTEX
8
OBJECT015
10
-321.062012
20
507.000000
30
65.840202
70
192
0
VERTEX
8
OBJECT015
10
-319.062469
20
507.000000
30
65.840202
70
192
0
VERTEX
8
OBJECT015
10
-319.062469
20
509.000000
30
65.840202
70
192
0
VERTEX
8
OBJECT015
10
0
20
0
30
0
70
128
71
2
72
3
73
-4
0
VERTEX
8
OBJECT015
10
0
20
0
30
0
70
128
71
-2
72
4
73
1
0
VERTEX
8
OBJECT015
10
0
20
0
30
0
70
128
71
6
72
7
73
-8
0
VERTEX
8
OBJECT015
10
0
20
0
30
0
70
128
71
-6
72
8
73
5
0
VERTEX
8
OBJECT015
10
0
20
0
30
0
70
128
71
7
72
4
73
-3
0
VERTEX
8
OBJECT015
10
0
20
0
30
0
70
128
71
-7
72
3
73
8
0
VERTEX
8
OBJECT015
10
0
20
0
30
0
70
128
71
5
72
2
73
-1
0
VERTEX
8
OBJECT015
10
0
20
0
30
0
70
128
71
-5
72
1
73
6
0
VERTEX
8
OBJECT015
10
0
20
0
30
0
70
128
71
6
72
1
73
-4
0
VERTEX
8
OBJECT015
10
0
20
0
30
0
70
128
71
-6
72
4
73
7
0
VERTEX
8
OBJECT015
10
0
20
0
30
0
70
128
71
8
72
3
73
-2
0
VERTEX
8
OBJECT015
10
0
20
0
30
0
70
128
71
-8
72
2
73
5
0
SEQEND
8
OBJECT015
0
POLYLINE
8
OBJECT016
66
1
70
64
71
5
72
6
62
50
0
VERTEX
8
OBJECT016
10
-321.063141
20
507.000000
30
65.840187
70
192
0
VERTEX
8
OBJECT016
10
-321.063141
20
509.000000
30
65.840187
70
192
0
VERTEX
8
OBJECT016
10
-319.062683
20
509.000000
30
65.840187
70
192
0
VERTEX
8
OBJECT016
10
-319.062683
20
507.000000
30
65.840187
70
192
0
VERTEX
8
OBJECT016
10
-320.062042
20
508.000000
30
63.839527
70
192
0
VERTEX
8
OBJECT016
10
0
20
0
30
0
70
128
71
2
72
3
73
-4
0
VERTEX
8
OBJECT016
10
0
20
0
30
0
70
128
71
-2
72
4
73
1
0
VERTEX
8
OBJECT016
10
0
20
0
30
0
70
128
71
4
72
3
73
5
0
VERTEX
8
OBJECT016
10
0
20
0
30
0
70
128
71
2
72
1
73
5
0
VERTEX
8
OBJECT016
10
0
20
0
30
0
70
128
71
4
72
5
73
1
0
VERTEX
8
OBJECT016
10
0
20
0
30
0
70
128
71
3
72
2
73
5
0
SEQEND
8
OBJECT016
0
POLYLINE
8
OBJECT017
66
1
70
64
71
8
72
12
62
50
0
VERTEX
8
OBJECT017
10
-260.062988
20
504.000000
30
119.839996
70
192
0
VERTEX
8
OBJECT017
10
-260.062988
20
512.000000
30
119.839996
70
192
0
VERTEX
8
OBJECT017
10
-252.063080
20
512.000000
30
119.839996
70
192
0
VERTEX
8
OBJECT017
10
-252.063080
20
504.000000
30
119.839996
70
192
0
VERTEX
8
OBJECT017
10
-259.062988
20
511.000000
30
115.839996
70
192
0
VERTEX
8
OBJECT017
10
-259.062988
20
505.000000
30
115.839996
70
192
0
VERTEX
8
OBJECT017
10
-253.061646
20
505.000000
30
115.839996
70
192
0
VERTEX
8
OBJECT017
10
-253.061646
20
511.000000
30
115.839996
70
192
0
VERTEX
8
OBJECT017
10
0
20
0
30
0
70
128
71
2
72
3
73
-4
0
VERTEX
8
OBJECT017
10
0
20
0
30
0
70
128
71
-2
72
4
73
1
0
VERTEX
8
OBJECT017
10
0
20
0
30
0
70
128
71
6
72
7
73
-8
0
VERTEX
8
OBJECT017
10
0
20
0
30
0
70
128
71
-6
72
8
73
5
0
VERTEX
8
OBJECT017
10
0
20
0
30
0
70
128
71
7
72
4
73
-3
0
VERTEX
8
OBJECT017
10
0
20
0
30
0
70
128
71
-7
72
3
73
8
0
VERTEX
8
OBJECT017
10
0
20
0
30
0
70
128
71
5
72
2
73
-1
0
VERTEX
8
OBJECT017
10
0
20
0
30
0
70
128
71
-5
72
1
73
6
0
VERTEX
8
OBJECT017
10
0
20
0
30
0
70
128
71
6
72
1
73
-4
0
VERTEX
8
OBJECT017
10
0
20
0
30
0
70
128
71
-6
72
4
73
7
0
VERTEX
8
OBJECT017
10
0
20
0
30
0
70
128
71
8
72
3
73
-2
0
VERTEX
8
OBJECT017
10
0
20
0
30
0
70
128
71
-8
72
2
73
5
0
SEQEND
8
OBJECT017
0
POLYLINE
8
OBJECT018
66
1
70
64
71
8
72
12
62
50
0
VERTEX
8
OBJECT018
10
-259.062012
20
505.000000
30
115.839996
70
192
0
VERTEX
8
OBJECT018
10
-259.062012
20
511.000000
30
115.839996
70
192
0
VERTEX
8
OBJECT018
10
-253.062500
20
511.000000
30
115.839996
70
192
0
VERTEX
8
OBJECT018
10
-253.062500
20
505.000000
30
115.839996
70
192
0
VERTEX
8
OBJECT018
10
-259.062012
20
511.000000
30
107.839996
70
192
0
VERTEX
8
OBJECT018
10
-259.062012
20
505.000000
30
107.839996
70
192
0
VERTEX
8
OBJECT018
10
-253.062500
20
505.000000
30
107.839996
70
192
0
VERTEX
8
OBJECT018
10
-253.062500
20
511.000000
30
107.839996
70
192
0
VERTEX
8
OBJECT018
10
0
20
0
30
0
70
128
71
2
72
3
73
-4
0
VERTEX
8
OBJECT018
10
0
20
0
30
0
70
128
71
-2
72
4
73
1
0
VERTEX
8
OBJECT018
10
0
20
0
30
0
70
128
71
6
72
7
73
-8
0
VERTEX
8
OBJECT018
10
0
20
0
30
0
70
128
71
-6
72
8
73
5
0
VERTEX
8
OBJECT018
10
0
20
0
30
0
70
128
71
7
72
4
73
-3
0
VERTEX
8
OBJECT018
10
0
20
0
30
0
70
128
71
-7
72
3
73
8
0
VERTEX
8
OBJECT018
10
0
20
0
30
0
70
128
71
5
72
2
73
-1
0
VERTEX
8
OBJECT018
10
0
20
0
30
0
70
128
71
-5
72
1
73
6
0
VERTEX
8
OBJECT018
10
0
20
0
30
0
70
128
71
6
72
1
73
-4
0
VERTEX
8
OBJECT018
10
0
20
0
30
0
70
128
71
-6
72
4
73
7
0
VERTEX
8
OBJECT018
10
0
20
0
30
0
70
128
71
8
72
3
73
-2
0
VERTEX
8
OBJECT018
10
0
20
0
30
0
70
128
71
-8
72
2
73
5
0
SEQEND
8
OBJECT018
0
POLYLINE
8
OBJECT019
66
1
70
64
71
8
72
12
62
50
0
VERTEX
8
OBJECT019
10
-259.062988
20
505.000000
30
107.839996
70
192
0
VERTEX
8
OBJECT019
10
-259.062988
20
511.000000
30
107.839996
70
192
0
VERTEX
8
OBJECT019
10
-253.063004
20
511.000000
30
107.839996
70
192
0
VERTEX
8
OBJECT019
10
-253.063004
20
505.000000
30
107.839996
70
192
0
VERTEX
8
OBJECT019
10
-258.062988
20
510.000000
30
103.839996
70
192
0
VERTEX
8
OBJECT019
10
-258.062988
20
506.000000
30
103.839996
70
192
0
VERTEX
8
OBJECT019
10
-254.061508
20
506.000000
30
103.839996
70
192
0
VERTEX
8
OBJECT019
10
-254.061508
20
510.000000
30
103.839996
70
192
0
VERTEX
8
OBJECT019
10
0
20
0
30
0
70
128
71
2
72
3
73
-4
0
VERTEX
8
OBJECT019
10
0
20
0
30
0
70
128
71
-2
72
4
73
1
0
VERTEX
8
OBJECT019
10
0
20
0
30
0
70
128
71
6
72
7
73
-8
0
VERTEX
8
OBJECT019
10
0
20
0
30
0
70
128
71
-6
72
8
73
5
0
VERTEX
8
OBJECT019
10
0
20
0
30
0
70
128
71
7
72
4
73
-3
0
VERTEX
8
OBJECT019
10
0
20
0
30
0
70
128
71
-7
72
3
73
8
0
VERTEX
8
OBJECT019
10
0
20
0
30
0
70
128
71
5
72
2
73
-1
0
VERTEX
8
OBJECT019
10
0
20
0
30
0
70
128
71
-5
72
1
73
6
0
VERTEX
8
OBJECT019
10
0
20
0
30
0
70
128
71
6
72
1
73
-4
0
VERTEX
8
OBJECT019
10
0
20
0
30
0
70
128
71
-6
72
4
73
7
0
VERTEX
8
OBJECT019
10
0
20
0
30
0
70
128
71
8
72
3
73
-2
0
VERTEX
8
OBJECT019
10
0
20
0
30
0
70
128
71
-8
72
2
73
5
0
SEQEND
8
OBJECT019
0
POLYLINE
8
OBJECT020
66
1
70
64
71
8
72
12
62
50
0
VERTEX
8
OBJECT020
10
-258.062012
20
506.000000
30
103.839996
70
192
0
VERTEX
8
OBJECT020
10
-258.062012
20
510.000000
30
103.839996
70
192
0
VERTEX
8
OBJECT020
10
-254.062500
20
510.000000
30
103.839996
70
192
0
VERTEX
8
OBJECT020
10
-254.062500
20
506.000000
30
103.839996
70
192
0
VERTEX
8
OBJECT020
10
-257.062012
20
509.000000
30
97.840202
70
192
0
VERTEX
8
OBJECT020
10
-257.062012
20
507.000000
30
97.840202
70
192
0
VERTEX
8
OBJECT020
10
-255.062439
20
507.000000
30
97.840202
70
192
0
VERTEX
8
OBJECT020
10
-255.062439
20
509.000000
30
97.840202
70
192
0
VERTEX
8
OBJECT020
10
0
20
0
30
0
70
128
71
2
72
3
73
-4
0
VERTEX
8
OBJECT020
10
0
20
0
30
0
70
128
71
-2
72
4
73
1
0
VERTEX
8
OBJECT020
10
0
20
0
30
0
70
128
71
6
72
7
73
-8
0
VERTEX
8
OBJECT020
10
0
20
0
30
0
70
128
71
-6
72
8
73
5
0
VERTEX
8
OBJECT020
10
0
20
0
30
0
70
128
71
7
72
4
73
-3
0
VERTEX
8
OBJECT020
10
0
20
0
30
0
70
128
71
-7
72
3
73
8
0
VERTEX
8
OBJECT020
10
0
20
0
30
0
70
128
71
5
72
2
73
-1
0
VERTEX
8
OBJECT020
10
0
20
0
30
0
70
128
71
-5
72
1
73
6
0
VERTEX
8
OBJECT020
10
0
20
0
30
0
70
128
71
6
72
1
73
-4
0
VERTEX
8
OBJECT020
10
0
20
0
30
0
70
128
71
-6
72
4
73
7
0
VERTEX
8
OBJECT020
10
0
20
0
30
0
70
128
71
8
72
3
73
-2
0
VERTEX
8
OBJECT020
10
0
20
0
30
0
70
128
71
-8
72
2
73
5
0
SEQEND
8
OBJECT020
0
POLYLINE
8
OBJECT021
66
1
70
64
71
5
72
6
62
50
0
VERTEX
8
OBJECT021
10
-257.063141
20
507.000000
30
97.840187
70
192
0
VERTEX
8
OBJECT021
10
-257.063141
20
509.000000
30
97.840187
70
192
0
VERTEX
8
OBJECT021
10
-255.062469
20
509.000000
30
97.840187
70
192
0
VERTEX
8
OBJECT021
10
-255.062469
20
507.000000
30
97.840187
70
192
0
VERTEX
8
OBJECT021
10
-256.062134
20
508.000000
30
95.839729
70
192
0
VERTEX
8
OBJECT021
10
0
20
0
30
0
70
128
71
2
72
3
73
-4
0
VERTEX
8
OBJECT021
10
0
20
0
30
0
70
128
71
-2
72
4
73
1
0
VERTEX
8
OBJECT021
10
0
20
0
30
0
70
128
71
4
72
3
73
5
0
VERTEX
8
OBJECT021
10
0
20
0
30
0
70
128
71
2
72
1
73
5
0
VERTEX
8
OBJECT021
10
0
20
0
30
0
70
128
71
4
72
5
73
1
0
VERTEX
8
OBJECT021
10
0
20
0
30
0
70
128
71
3
72
2
73
5
0
SEQEND
8
OBJECT021
0
POLYLINE
8
OBJECT022
66
1
70
64
71
8
72
12
62
50
0
VERTEX
8
OBJECT022
10
-452.063049
20
504.000000
30
26.451799
70
192
0
VERTEX
8
OBJECT022
10
-452.063049
20
512.000000
30
26.451799
70
192
0
VERTEX
8
OBJECT022
10
-444.061218
20
512.000000
30
26.451799
70
192
0
VERTEX
8
OBJECT022
10
-444.061218
20
504.000000
30
26.451799
70
192
0
VERTEX
8
OBJECT022
10
-451.062988
20
511.000000
30
22.451799
70
192
0
VERTEX
8
OBJECT022
10
-451.062988
20
505.000000
30
22.451799
70
192
0
VERTEX
8
OBJECT022
10
-445.063812
20
505.000000
30
22.451799
70
192
0
VERTEX
8
OBJECT022
10
-445.063812
20
511.000000
30
22.451799
70
192
0
VERTEX
8
OBJECT022
10
0
20
0
30
0
70
128
71
2
72
3
73
-4
0
VERTEX
8
OBJECT022
10
0
20
0
30
0
70
128
71
-2
72
4
73
1
0
VERTEX
8
OBJECT022
10
0
20
0
30
0
70
128
71
6
72
7
73
-8
0
VERTEX
8
OBJECT022
10
0
20
0
30
0
70
128
71
-6
72
8
73
5
0
VERTEX
8
OBJECT022
10
0
20
0
30
0
70
128
71
7
72
4
73
-3
0
VERTEX
8
OBJECT022
10
0
20
0
30
0
70
128
71
-7
72
3
73
8
0
VERTEX
8
OBJECT022
10
0
20
0
30
0
70
128
71
5
72
2
73
-1
0
VERTEX
8
OBJECT022
10
0
20
0
30
0
70
128
71
-5
72
1
73
6
0
VERTEX
8
OBJECT022
10
0
20
0
30
0
70
128
71
6
72
1
73
-4
0
VERTEX
8
OBJECT022
10
0
20
0
30
0
70
128
71
-6
72
4
73
7
0
VERTEX
8
OBJECT022
10
0
20
0
30
0
70
128
71
8
72
3
73
-2
0
VERTEX
8
OBJECT022
10
0
20
0
30
0
70
128
71
-8
72
2
73
5
0
SEQEND
8
OBJECT022
0
POLYLINE
8
OBJECT023
66
1
70
64
71
8
72
12
62
50
0
VERTEX
8
OBJECT023
10
-451.062012
20
505.000000
30
22.451799
70
192
0
VERTEX
8
OBJECT023
10
-451.062012
20
511.000000
30
22.451799
70
192
0
VERTEX
8
OBJECT023
10
-445.062500
20
511.000000
30
22.451799
70
192
0
VERTEX
8
OBJECT023
10
-445.062500
20
505.000000
30
22.451799
70
192
0
VERTEX
8
OBJECT023
10
-451.062012
20
511.000000
30
14.451800
70
192
0
VERTEX
8
OBJECT023
10
-451.062012
20
505.000000
30
14.451800
70
192
0
VERTEX
8
OBJECT023
10
-445.062500
20
505.000000
30
14.451800
70
192
0
VERTEX
8
OBJECT023
10
-445.062500
20
511.000000
30
14.451800
70
192
0
VERTEX
8
OBJECT023
10
0
20
0
30
0
70
128
71
2
72
3
73
-4
0
VERTEX
8
OBJECT023
10
0
20
0
30
0
70
128
71
-2
72
4
73
1
0
VERTEX
8
OBJECT023
10
0
20
0
30
0
70
128
71
6
72
7
73
-8
0
VERTEX
8
OBJECT023
10
0
20
0
30
0
70
128
71
-6
72
8
73
5
0
VERTEX
8
OBJECT023
10
0
20
0
30
0
70
128
71
7
72
4
73
-3
0
VERTEX
8
OBJECT023
10
0
20
0
30
0
70
128
71
-7
72
3
73
8
0
VERTEX
8
OBJECT023
10
0
20
0
30
0
70
128
71
5
72
2
73
-1
0
VERTEX
8
OBJECT023
10
0
20
0
30
0
70
128
71
-5
72
1
73
6
0
VERTEX
8
OBJECT023
10
0
20
0
30
0
70
128
71
6
72
1
73
-4
0
VERTEX
8
OBJECT023
10
0
20
0
30
0
70
128
71
-6
72
4
73
7
0
VERTEX
8
OBJECT023
10
0
20
0
30
0
70
128
71
8
72
3
73
-2
0
VERTEX
8
OBJECT023
10
0
20
0
30
0
70
128
71
-8
72
2
73
5
0
SEQEND
8
OBJECT023
0
POLYLINE
8
OBJECT024
66
1
70
64
71
8
72
12
62
50
0
VERTEX
8
OBJECT024
10
-451.063080
20
505.000000
30
14.451800
70
192
0
VERTEX
8
OBJECT024
10
-451.063080
20
511.000000
30
14.451800
70
192
0
VERTEX
8
OBJECT024
10
-445.061646
20
511.000000
30
14.451800
70
192
0
VERTEX
8
OBJECT024
10
-445.061646
20
505.000000
30
14.451800
70
192
0
VERTEX
8
OBJECT024
10
-450.063019
20
510.000000
30
10.451800
70
192
0
VERTEX
8
OBJECT024
10
-450.063019
20
506.000000
30
10.451800
70
192
0
VERTEX
8
OBJECT024
10
-446.060150
20
506.000000
30
10.451800
70
192
0
VERTEX
8
OBJECT024
10
-446.060150
20
510.000000
30
10.451800
70
192
0
VERTEX
8
OBJECT024
10
0
20
0
30
0
70
128
71
2
72
3
73
-4
0
VERTEX
8
OBJECT024
10
0
20
0
30
0
70
128
71
-2
72
4
73
1
0
VERTEX
8
OBJECT024
10
0
20
0
30
0
70
128
71
6
72
7
73
-8
0
VERTEX
8
OBJECT024
10
0
20
0
30
0
70
128
71
-6
72
8
73
5
0
VERTEX
8
OBJECT024
10
0
20
0
30
0
70
128
71
7
72
4
73
-3
0
VERTEX
8
OBJECT024
10
0
20
0
30
0
70
128
71
-7
72
3
73
8
0
VERTEX
8
OBJECT024
10
0
20
0
30
0
70
128
71
5
72
2
73
-1
0
VERTEX
8
OBJECT024
10
0
20
0
30
0
70
128
71
-5
72
1
73
6
0
VERTEX
8
OBJECT024
10
0
20
0
30
0
70
128
71
6
72
1
73
-4
0
VERTEX
8
OBJECT024
10
0
20
0
30
0
70
128
71
-6
72
4
73
7
0
VERTEX
8
OBJECT024
10
0
20
0
30
0
70
128
71
8
72
3
73
-2
0
VERTEX
8
OBJECT024
10
0
20
0
30
0
70
128
71
-8
72
2
73
5
0
SEQEND
8
OBJECT024
0
POLYLINE
8
OBJECT025
66
1
70
64
71
8
72
12
62
50
0
VERTEX
8
OBJECT025
10
-450.062042
20
506.000000
30
10.451800
70
192
0
VERTEX
8
OBJECT025
10
-450.062042
20
510.000000
30
10.451800
70
192
0
VERTEX
8
OBJECT025
10
-446.061981
20
510.000000
30
10.451800
70
192
0
VERTEX
8
OBJECT025
10
-446.061981
20
506.000000
30
10.451800
70
192
0
VERTEX
8
OBJECT025
10
-449.062012
20
509.000000
30
4.451820
70
192
0
VERTEX
8
OBJECT025
10
-449.062012
20
507.000000
30
4.451820
70
192
0
VERTEX
8
OBJECT025
10
-447.061920
20
507.000000
30
4.451820
70
192
0
VERTEX
8
OBJECT025
10
-447.061920
20
509.000000
30
4.451820
70
192
0
VERTEX
8
OBJECT025
10
0
20
0
30
0
70
128
71
2
72
3
73
-4
0
VERTEX
8
OBJECT025
10
0
20
0
30
0
70
128
71
-2
72
4
73
1
0
VERTEX
8
OBJECT025
10
0
20
0
30
0
70
128
71
6
72
7
73
-8
0
VERTEX
8
OBJECT025
10
0
20
0
30
0
70
128
71
-6
72
8
73
5
0
VERTEX
8
OBJECT025
10
0
20
0
30
0
70
128
71
7
72
4
73
-3
0
VERTEX
8
OBJECT025
10
0
20
0
30
0
70
128
71
-7
72
3
73
8
0
VERTEX
8
OBJECT025
10
0
20
0
30
0
70
128
71
5
72
2
73
-1
0
VERTEX
8
OBJECT025
10
0
20
0
30
0
70
128
71
-5
72
1
73
6
0
VERTEX
8
OBJECT025
10
0
20
0
30
0
70
128
71
6
72
1
73
-4
0
VERTEX
8
OBJECT025
10
0
20
0
30
0
70
128
71
-6
72
4
73
7
0
VERTEX
8
OBJECT025
10
0
20
0
30
0
70
128
71
8
72
3
73
-2
0
VERTEX
8
OBJECT025
10
0
20
0
30
0
70
128
71
-8
72
2
73
5
0
SEQEND
8
OBJECT025
0
POLYLINE
8
OBJECT026
66
1
70
64
71
5
72
6
62
50
0
VERTEX
8
OBJECT026
10
-449.063141
20
507.000000
30
4.451809
70
192
0
VERTEX
8
OBJECT026
10
-449.063141
20
509.000000
30
4.451809
70
192
0
VERTEX
8
OBJECT026
10
-447.061920
20
509.000000
30
4.451809
70
192
0
VERTEX
8
OBJECT026
10
-447.061920
20
507.000000
30
4.451809
70
192
0
VERTEX
8
OBJECT026
10
-448.062408
20
508.000000
30
2.451982
70
192
0
VERTEX
8
OBJECT026
10
0
20
0
30
0
70
128
71
2
72
3
73
-4
0
VERTEX
8
OBJECT026
10
0
20
0
30
0
70
128
71
-2
72
4
73
1
0
VERTEX
8
OBJECT026
10
0
20
0
30
0
70
128
71
4
72
3
73
5
0
VERTEX
8
OBJECT026
10
0
20
0
30
0
70
128
71
2
72
1
73
5
0
VERTEX
8
OBJECT026
10
0
20
0
30
0
70
128
71
4
72
5
73
1
0
VERTEX
8
OBJECT026
10
0
20
0
30
0
70
128
71
3
72
2
73
5
0
SEQEND
8
OBJECT026
0
POLYLINE
8
OBJECT027
66
1
70
64
71
8
72
12
62
50
0
VERTEX
8
OBJECT027
10
384.000000
20
192.000000
30
112.000000
70
192
0
VERTEX
8
OBJECT027
10
384.000000
20
200.000000
30
112.000000
70
192
0
VERTEX
8
OBJECT027
10
392.000000
20
200.000000
30
112.000000
70
192
0
VERTEX
8
OBJECT027
10
392.000000
20
192.000000
30
112.000000
70
192
0
VERTEX
8
OBJECT027
10
385.000000
20
199.000000
30
108.000000
70
192
0
VERTEX
8
OBJECT027
10
385.000000
20
193.000000
30
108.000000
70
192
0
VERTEX
8
OBJECT027
10
391.000000
20
193.000000
30
108.000000
70
192
0
VERTEX
8
OBJECT027
10
391.000000
20
199.000000
30
108.000000
70
192
0
VERTEX
8
OBJECT027
10
0
20
0
30
0
70
128
71
2
72
3
73
-4
0
VERTEX
8
OBJECT027
10
0
20
0
30
0
70
128
71
-2
72
4
73
1
0
VERTEX
8
OBJECT027
10
0
20
0
30
0
70
128
71
6
72
7
73
-8
0
VERTEX
8
OBJECT027
10
0
20
0
30
0
70
128
71
-6
72
8
73
5
0
VERTEX
8
OBJECT027
10
0
20
0
30
0
70
128
71
7
72
4
73
-3
0
VERTEX
8
OBJECT027
10
0
20
0
30
0
70
128
71
-7
72
3
73
8
0
VERTEX
8
OBJECT027
10
0
20
0
30
0
70
128
71
5
72
2
73
-1
0
VERTEX
8
OBJECT027
10
0
20
0
30
0
70
128
71
-5
72
1
73
6
0
VERTEX
8
OBJECT027
10
0
20
0
30
0
70
128
71
6
72
1
73
-4
0
VERTEX
8
OBJECT027
10
0
20
0
30
0
70
128
71
-6
72
4
73
7
0
VERTEX
8
OBJECT027
10
0
20
0
30
0
70
128
71
8
72
3
73
-2
0
VERTEX
8
OBJECT027
10
0
20
0
30
0
70
128
71
-8
72
2
73
5
0
SEQEND
8
OBJECT027
0
POLYLINE
8
OBJECT028
66
1
70
64
71
8
72
12
62
50
0
VERTEX
8
OBJECT028
10
385.000000
20
193.000000
30
108.000000
70
192
0
VERTEX
8
OBJECT028
10
385.000000
20
199.000000
30
108.000000
70
192
0
VERTEX
8
OBJECT028
10
391.000000
20
199.000000
30
108.000000
70
192
0
VERTEX
8
OBJECT028
10
391.000000
20
193.000000
30
108.000000
70
192
0
VERTEX
8
OBJECT028
10
385.000000
20
199.000000
30
100.000000
70
192
0
VERTEX
8
OBJECT028
10
385.000000
20
193.000000
30
100.000000
70
192
0
VERTEX
8
OBJECT028
10
391.000000
20
193.000000
30
100.000000
70
192
0
VERTEX
8
OBJECT028
10
391.000000
20
199.000000
30
100.000000
70
192
0
VERTEX
8
OBJECT028
10
0
20
0
30
0
70
128
71
2
72
3
73
-4
0
VERTEX
8
OBJECT028
10
0
20
0
30
0
70
128
71
-2
72
4
73
1
0
VERTEX
8
OBJECT028
10
0
20
0
30
0
70
128
71
6
72
7
73
-8
0
VERTEX
8
OBJECT028
10
0
20
0
30
0
70
128
71
-6
72
8
73
5
0
VERTEX
8
OBJECT028
10
0
20
0
30
0
70
128
71
7
72
4
73
-3
0
VERTEX
8
OBJECT028
10
0
20
0
30
0
70
128
71
-7
72
3
73
8
0
VERTEX
8
OBJECT028
10
0
20
0
30
0
70
128
71
5
72
2
73
-1
0
VERTEX
8
OBJECT028
10
0
20
0
30
0
70
128
71
-5
72
1
73
6
0
VERTEX
8
OBJECT028
10
0
20
0
30
0
70
128
71
6
72
1
73
-4
0
VERTEX
8
OBJECT028
10
0
20
0
30
0
70
128
71
-6
72
4
73
7
0
VERTEX
8
OBJECT028
10
0
20
0
30
0
70
128
71
8
72
3
73
-2
0
VERTEX
8
OBJECT028
10
0
20
0
30
0
70
128
71
-8
72
2
73
5
0
SEQEND
8
OBJECT028
0
POLYLINE
8
OBJECT029
66
1
70
64
71
8
72
12
62
50
0
VERTEX
8
OBJECT029
10
385.000000
20
193.000000
30
100.000000
70
192
0
VERTEX
8
OBJECT029
10
385.000000
20
199.000000
30
100.000000
70
192
0
VERTEX
8
OBJECT029
10
391.000000
20
199.000000
30
100.000000
70
192
0
VERTEX
8
OBJECT029
10
391.000000
20
193.000000
30
100.000000
70
192
0
VERTEX
8
OBJECT029
10
386.000000
20
198.000000
30
96.000000
70
192
0
VERTEX
8
OBJECT029
10
386.000000
20
194.000000
30
96.000000
70
192
0
VERTEX
8
OBJECT029
10
390.000000
20
194.000000
30
96.000000
70
192
0
VERTEX
8
OBJECT029
10
390.000000
20
198.000000
30
96.000000
70
192
0
VERTEX
8
OBJECT029
10
0
20
0
30
0
70
128
71
2
72
3
73
-4
0
VERTEX
8
OBJECT029
10
0
20
0
30
0
70
128
71
-2
72
4
73
1
0
VERTEX
8
OBJECT029
10
0
20
0
30
0
70
128
71
6
72
7
73
-8
0
VERTEX
8
OBJECT029
10
0
20
0
30
0
70
128
71
-6
72
8
73
5
0
VERTEX
8
OBJECT029
10
0
20
0
30
0
70
128
71
7
72
4
73
-3
0
VERTEX
8
OBJECT029
10
0
20
0
30
0
70
128
71
-7
72
3
73
8
0
VERTEX
8
OBJECT029
10
0
20
0
30
0
70
128
71
5
72
2
73
-1
0
VERTEX
8
OBJECT029
10
0
20
0
30
0
70
128
71
-5
72
1
73
6
0
VERTEX
8
OBJECT029
10
0
20
0
30
0
70
128
71
6
72
1
73
-4
0
VERTEX
8
OBJECT029
10
0
20
0
30
0
70
128
71
-6
72
4
73
7
0
VERTEX
8
OBJECT029
10
0
20
0
30
0
70
128
71
8
72
3
73
-2
0
VERTEX
8
OBJECT029
10
0
20
0
30
0
70
128
71
-8
72
2
73
5
0
SEQEND
8
OBJECT029
0
POLYLINE
8
OBJECT030
66
1
70
64
71
8
72
12
62
50
0
VERTEX
8
OBJECT030
10
386.000000
20
194.000000
30
96.000000
70
192
0
VERTEX
8
OBJECT030
10
386.000000
20
198.000000
30
96.000000
70
192
0
VERTEX
8
OBJECT030
10
390.000000
20
198.000000
30
96.000000
70
192
0
VERTEX
8
OBJECT030
10
390.000000
20
194.000000
30
96.000000
70
192
0
VERTEX
8
OBJECT030
10
387.000000
20
197.000000
30
90.000000
70
192
0
VERTEX
8
OBJECT030
10
387.000000
20
195.000000
30
90.000000
70
192
0
VERTEX
8
OBJECT030
10
389.000000
20
195.000000
30
90.000000
70
192
0
VERTEX
8
OBJECT030
10
389.000000
20
197.000000
30
90.000000
70
192
0
VERTEX
8
OBJECT030
10
0
20
0
30
0
70
128
71
2
72
3
73
-4
0
VERTEX
8
OBJECT030
10
0
20
0
30
0
70
128
71
-2
72
4
73
1
0
VERTEX
8
OBJECT030
10
0
20
0
30
0
70
128
71
6
72
7
73
-8
0
VERTEX
8
OBJECT030
10
0
20
0
30
0
70
128
71
-6
72
8
73
5
0
VERTEX
8
OBJECT030
10
0
20
0
30
0
70
128
71
7
72
4
73
-3
0
VERTEX
8
OBJECT030
10
0
20
0
30
0
70
128
71
-7
72
3
73
8
0
VERTEX
8
OBJECT030
10
0
20
0
30
0
70
128
71
5
72
2
73
-1
0
VERTEX
8
OBJECT030
10
0
20
0
30
0
70
128
71
-5
72
1
73
6
0
VERTEX
8
OBJECT030
10
0
20
0
30
0
70
128
71
6
72
1
73
-4
0
VERTEX
8
OBJECT030
10
0
20
0
30
0
70
128
71
-6
72
4
73
7
0
VERTEX
8
OBJECT030
10
0
20
0
30
0
70
128
71
8
72
3
73
-2
0
VERTEX
8
OBJECT030
10
0
20
0
30
0
70
128
71
-8
72
2
73
5
0
SEQEND
8
OBJECT030
0
POLYLINE
8
OBJECT031
66
1
70
64
71
5
72
6
62
50
0
VERTEX
8
OBJECT031
10
387.000000
20
195.000000
30
90.000000
70
192
0
VERTEX
8
OBJECT031
10
387.000000
20
197.000000
30
90.000000
70
192
0
VERTEX
8
OBJECT031
10
389.000000
20
197.000000
30
90.000000
70
192
0
VERTEX
8
OBJECT031
10
389.000000
20
195.000000
30
90.000000
70
192
0
VERTEX
8
OBJECT031
10
388.000000
20
196.000000
30
88.000000
70
192
0
VERTEX
8
OBJECT031
10
0
20
0
30
0
70
128
71
2
72
3
73
-4
0
VERTEX
8
OBJECT031
10
0
20
0
30
0
70
128
71
-2
72
4
73
1
0
VERTEX
8
OBJECT031
10
0
20
0
30
0
70
128
71
4
72
3
73
5
0
VERTEX
8
OBJECT031
10
0
20
0
30
0
70
128
71
2
72
1
73
5
0
VERTEX
8
OBJECT031
10
0
20
0
30
0
70
128
71
4
72
5
73
1
0
VERTEX
8
OBJECT031
10
0
20
0
30
0
70
128
71
3
72
2
73
5
0
SEQEND
8
OBJECT031
0
ENDSEC
0
EOF
